# xmcd
#
# Track frame offsets:
#	150
#	17830
#	34910
#	47322
#	61584
#	87546
#	105038
#	118616
#	139436
#	150552
#	163786
#
# Disc length: 2456 seconds
# Revision: 0
# Processed by: cddbd v1.5.2PL0 Copyright (c) Steve Scherf et al.
# Submitted via: dBpowerAMP V12.0
#
DISCID=8209960b
DTITLE=The Tractors - The Tractors [Arista] (prc)
DYEAR=1994
DGENRE=Country
TTITLE0=The Tulsa Shuffle
TTITLE1=Fallin' Apart
TTITLE2=Thirty Days
TTITLE3=I've Had Enough
TTITLE4=The Little Man
TTITLE5=Baby Likes To Rock It
TTITLE6=Badly Bent
TTITLE7=The Blue Collar Rock
TTITLE8=Doreen
TTITLE9=Settin' The Woods On Fire
TTITLE10=Tryin' To Get To New Orleans
EXTD=
EXTT0=
EXTT1=
EXTT2=
EXTT3=
EXTT4=
EXTT5=
EXTT6=
EXTT7=
EXTT8=
EXTT9=
EXTT10=
PLAYORDER=
